<?xml version='1.0' encoding='UTF-8'?>
<svg width="41mm" height="41mm" version="1.1" viewBox="0 0 41 41" class="print-qr-code" role="img" aria-label="QR code for https://bamidelealy.com/notes/ile-owo-design.html" xmlns="http://www.w3.org/2000/svg"><path d="M2,2H3V3H2zM3,2H4V3H3zM4,2H5V3H4zM5,2H6V3H5zM6,2H7V3H6zM7,2H8V3H7zM8,2H9V3H8zM10,2H11V3H10zM11,2H12V3H11zM14,2H15V3H14zM16,2H17V3H16zM20,2H21V3H20zM22,2H23V3H22zM24,2H25V3H24zM26,2H27V3H26zM27,2H28V3H27zM30,2H31V3H30zM32,2H33V3H32zM33,2H34V3H33zM34,2H35V3H34zM35,2H36V3H35zM36,2H37V3H36zM37,2H38V3H37zM38,2H39V3H38zM2,3H3V4H2zM8,3H9V4H8zM11,3H12V4H11zM14,3H15V4H14zM16,3H17V4H16zM18,3H19V4H18zM23,3H24V4H23zM27,3H28V4H27zM28,3H29V4H28zM29,3H30V4H29zM30,3H31V4H30zM32,3H33V4H32zM38,3H39V4H38zM2,4H3V5H2zM4,4H5V5H4zM5,4H6V5H5zM6,4H7V5H6zM8,4H9V5H8zM17,4H18V5H17zM18,4H19V5H18zM19,4H20V5H19zM20,4H21V5H20zM23,4H24V5H23zM24,4H25V5H24zM26,4H27V5H26zM28,4H29V5H28zM30,4H31V5H30zM32,4H33V5H32zM34,4H35V5H34zM35,4H36V5H35zM36,4H37V5H36zM38,4H39V5H38zM2,5H3V6H2zM4,5H5V6H4zM5,5H6V6H5zM6,5H7V6H6zM8,5H9V6H8zM12,5H13V6H12zM14,5H15V6H14zM16,5H17V6H16zM18,5H19V6H18zM20,5H21V6H20zM22,5H23V6H22zM24,5H25V6H24zM26,5H27V6H26zM27,5H28V6H27zM32,5H33V6H32zM34,5H35V6H34zM35,5H36V6H35zM36,5H37V6H36zM38,5H39V6H38zM2,6H3V7H2zM4,6H5V7H4zM5,6H6V7H5zM6,6H7V7H6zM8,6H9V7H8zM10,6H11V7H10zM12,6H13V7H12zM13,6H14V7H13zM15,6H16V7H15zM16,6H17V7H16zM21,6H22V7H21zM22,6H23V7H22zM23,6H24V7H23zM25,6H26V7H25zM32,6H33V7H32zM34,6H35V7H34zM35,6H36V7H35zM36,6H37V7H36zM38,6H39V7H38zM2,7H3V8H2zM8,7H9V8H8zM10,7H11V8H10zM11,7H12V8H11zM12,7H13V8H12zM15,7H16V8H15zM23,7H24V8H23zM24,7H25V8H24zM29,7H30V8H29zM30,7H31V8H30zM32,7H33V8H32zM38,7H39V8H38zM2,8H3V9H2zM3,8H4V9H3zM4,8H5V9H4zM5,8H6V9H5zM6,8H7V9H6zM7,8H8V9H7zM8,8H9V9H8zM10,8H11V9H10zM12,8H13V9H12zM14,8H15V9H14zM16,8H17V9H16zM18,8H19V9H18zM20,8H21V9H20zM22,8H23V9H22zM24,8H25V9H24zM26,8H27V9H26zM28,8H29V9H28zM30,8H31V9H30zM32,8H33V9H32zM33,8H34V9H33zM34,8H35V9H34zM35,8H36V9H35zM36,8H37V9H36zM37,8H38V9H37zM38,8H39V9H38zM12,9H13V10H12zM13,9H14V10H13zM14,9H15V10H14zM16,9H17V10H16zM17,9H18V10H17zM20,9H21V10H20zM21,9H22V10H21zM22,9H23V10H22zM23,9H24V10H23zM25,9H26V10H25zM26,9H27V10H26zM28,9H29V10H28zM30,9H31V10H30zM3,10H4V11H3zM4,10H5V11H4zM5,10H6V11H5zM6,10H7V11H6zM7,10H8V11H7zM8,10H9V11H8zM9,10H10V11H9zM11,10H12V11H11zM14,10H15V11H14zM17,10H18V11H17zM24,10H25V11H24zM33,10H34V11H33zM34,10H35V11H34zM38,10H39V11H38zM2,11H3V12H2zM3,11H4V12H3zM6,11H7V12H6zM7,11H8V12H7zM9,11H10V12H9zM10,11H11V12H10zM13,11H14V12H13zM18,11H19V12H18zM20,11H21V12H20zM21,11H22V12H21zM22,11H23V12H22zM25,11H26V12H25zM27,11H28V12H27zM28,11H29V12H28zM29,11H30V12H29zM30,11H31V12H30zM32,11H33V12H32zM35,11H36V12H35zM36,11H37V12H36zM2,12H3V13H2zM5,12H6V13H5zM7,12H8V13H7zM8,12H9V13H8zM12,12H13V13H12zM15,12H16V13H15zM16,12H17V13H16zM20,12H21V13H20zM21,12H22V13H21zM23,12H24V13H23zM27,12H28V13H27zM28,12H29V13H28zM32,12H33V13H32zM35,12H36V13H35zM37,12H38V13H37zM38,12H39V13H38zM3,13H4V14H3zM5,13H6V14H5zM7,13H8V14H7zM10,13H11V14H10zM12,13H13V14H12zM16,13H17V14H16zM21,13H22V14H21zM22,13H23V14H22zM23,13H24V14H23zM24,13H25V14H24zM25,13H26V14H25zM28,13H29V14H28zM30,13H31V14H30zM32,13H33V14H32zM33,13H34V14H33zM34,13H35V14H34zM37,13H38V14H37zM2,14H3V15H2zM3,14H4V15H3zM7,14H8V15H7zM8,14H9V15H8zM16,14H17V15H16zM22,14H23V15H22zM24,14H25V15H24zM25,14H26V15H25zM26,14H27V15H26zM27,14H28V15H27zM28,14H29V15H28zM31,14H32V15H31zM32,14H33V15H32zM34,14H35V15H34zM36,14H37V15H36zM37,14H38V15H37zM3,15H4V16H3zM4,15H5V16H4zM6,15H7V16H6zM9,15H10V16H9zM12,15H13V16H12zM14,15H15V16H14zM21,15H22V16H21zM25,15H26V16H25zM27,15H28V16H27zM30,15H31V16H30zM31,15H32V16H31zM35,15H36V16H35zM36,15H37V16H36zM3,16H4V17H3zM4,16H5V17H4zM5,16H6V17H5zM7,16H8V17H7zM8,16H9V17H8zM9,16H10V17H9zM12,16H13V17H12zM13,16H14V17H13zM14,16H15V17H14zM16,16H17V17H16zM21,16H22V17H21zM24,16H25V17H24zM28,16H29V17H28zM29,16H30V17H29zM30,16H31V17H30zM33,16H34V17H33zM35,16H36V17H35zM37,16H38V17H37zM38,16H39V17H38zM9,17H10V18H9zM14,17H15V18H14zM17,17H18V18H17zM20,17H21V18H20zM21,17H22V18H21zM28,17H29V18H28zM30,17H31V18H30zM31,17H32V18H31zM32,17H33V18H32zM33,17H34V18H33zM38,17H39V18H38zM2,18H3V19H2zM3,18H4V19H3zM5,18H6V19H5zM6,18H7V19H6zM8,18H9V19H8zM10,18H11V19H10zM11,18H12V19H11zM12,18H13V19H12zM15,18H16V19H15zM16,18H17V19H16zM23,18H24V19H23zM24,18H25V19H24zM25,18H26V19H25zM26,18H27V19H26zM27,18H28V19H27zM29,18H30V19H29zM32,18H33V19H32zM33,18H34V19H33zM34,18H35V19H34zM36,18H37V19H36zM37,18H38V19H37zM2,19H3V20H2zM3,19H4V20H3zM4,19H5V20H4zM5,19H6V20H5zM6,19H7V20H6zM7,19H8V20H7zM12,19H13V20H12zM14,19H15V20H14zM15,19H16V20H15zM18,19H19V20H18zM21,19H22V20H21zM23,19H24V20H23zM27,19H28V20H27zM30,19H31V20H30zM33,19H34V20H33zM2,20H3V21H2zM3,20H4V21H3zM4,20H5V21H4zM6,20H7V21H6zM7,20H8V21H7zM8,20H9V21H8zM9,20H10V21H9zM12,20H13V21H12zM14,20H15V21H14zM16,20H17V21H16zM17,20H18V21H17zM20,20H21V21H20zM21,20H22V21H21zM22,20H23V21H22zM23,20H24V21H23zM24,20H25V21H24zM25,20H26V21H25zM26,20H27V21H26zM28,20H29V21H28zM29,20H30V21H29zM30,20H31V21H30zM31,20H32V21H31zM37,20H38V21H37zM38,20H39V21H38zM2,21H3V22H2zM5,21H6V22H5zM6,21H7V22H6zM9,21H10V22H9zM10,21H11V22H10zM11,21H12V22H11zM13,21H14V22H13zM14,21H15V22H14zM19,21H20V22H19zM20,21H21V22H20zM22,21H23V22H22zM23,21H24V22H23zM25,21H26V22H25zM28,21H29V22H28zM31,21H32V22H31zM32,21H33V22H32zM33,21H34V22H33zM34,21H35V22H34zM37,21H38V22H37zM38,21H39V22H38zM4,22H5V23H4zM5,22H6V23H5zM7,22H8V23H7zM8,22H9V23H8zM13,22H14V23H13zM15,22H16V23H15zM18,22H19V23H18zM20,22H21V23H20zM21,22H22V23H21zM24,22H25V23H24zM25,22H26V23H25zM27,22H28V23H27zM28,22H29V23H28zM29,22H30V23H29zM31,22H32V23H31zM32,22H33V23H32zM33,22H34V23H33zM34,22H35V23H34zM35,22H36V23H35zM36,22H37V23H36zM38,22H39V23H38zM2,23H3V24H2zM3,23H4V24H3zM6,23H7V24H6zM10,23H11V24H10zM11,23H12V24H11zM14,23H15V24H14zM15,23H16V24H15zM18,23H19V24H18zM19,23H20V24H19zM23,23H24V24H23zM25,23H26V24H25zM27,23H28V24H27zM33,23H34V24H33zM35,23H36V24H35zM36,23H37V24H36zM2,24H3V25H2zM4,24H5V25H4zM5,24H6V25H5zM8,24H9V25H8zM11,24H12V25H11zM12,24H13V25H12zM15,24H16V25H15zM16,24H17V25H16zM18,24H19V25H18zM19,24H20V25H19zM20,24H21V25H20zM23,24H24V25H23zM24,24H25V25H24zM27,24H28V25H27zM28,24H29V25H28zM29,24H30V25H29zM31,24H32V25H31zM37,24H38V25H37zM38,24H39V25H38zM4,25H5V26H4zM6,25H7V26H6zM7,25H8V26H7zM13,25H14V26H13zM19,25H20V26H19zM21,25H22V26H21zM23,25H24V26H23zM24,25H25V26H24zM27,25H28V26H27zM33,25H34V26H33zM3,26H4V27H3zM4,26H5V27H4zM6,26H7V27H6zM8,26H9V27H8zM11,26H12V27H11zM14,26H15V27H14zM20,26H21V27H20zM22,26H23V27H22zM24,26H25V27H24zM26,26H27V27H26zM28,26H29V27H28zM30,26H31V27H30zM31,26H32V27H31zM34,26H35V27H34zM35,26H36V27H35zM36,26H37V27H36zM37,26H38V27H37zM2,27H3V28H2zM3,27H4V28H3zM4,27H5V28H4zM10,27H11V28H10zM11,27H12V28H11zM12,27H13V28H12zM13,27H14V28H13zM16,27H17V28H16zM20,27H21V28H20zM21,27H22V28H21zM22,27H23V28H22zM23,27H24V28H23zM24,27H25V28H24zM25,27H26V28H25zM29,27H30V28H29zM32,27H33V28H32zM33,27H34V28H33zM2,28H3V29H2zM4,28H5V29H4zM6,28H7V29H6zM8,28H9V29H8zM10,28H11V29H10zM11,28H12V29H11zM13,28H14V29H13zM15,28H16V29H15zM18,28H19V29H18zM21,28H22V29H21zM24,28H25V29H24zM26,28H27V29H26zM27,28H28V29H27zM29,28H30V29H29zM30,28H31V29H30zM32,28H33V29H32zM33,28H34V29H33zM35,28H36V29H35zM38,28H39V29H38zM2,29H3V30H2zM5,29H6V30H5zM6,29H7V30H6zM10,29H11V30H10zM15,29H16V30H15zM19,29H20V30H19zM20,29H21V30H20zM22,29H23V30H22zM23,29H24V30H23zM24,29H25V30H24zM25,29H26V30H25zM29,29H30V30H29zM31,29H32V30H31zM33,29H34V30H33zM34,29H35V30H34zM37,29H38V30H37zM2,30H3V31H2zM4,30H5V31H4zM6,30H7V31H6zM7,30H8V31H7zM8,30H9V31H8zM9,30H10V31H9zM12,30H13V31H12zM14,30H15V31H14zM16,30H17V31H16zM17,30H18V31H17zM18,30H19V31H18zM19,30H20V31H19zM24,30H25V31H24zM25,30H26V31H25zM26,30H27V31H26zM27,30H28V31H27zM28,30H29V31H28zM29,30H30V31H29zM30,30H31V31H30zM31,30H32V31H31zM32,30H33V31H32zM33,30H34V31H33zM34,30H35V31H34zM35,30H36V31H35zM36,30H37V31H36zM38,30H39V31H38zM10,31H11V32H10zM11,31H12V32H11zM14,31H15V32H14zM15,31H16V32H15zM17,31H18V32H17zM19,31H20V32H19zM20,31H21V32H20zM21,31H22V32H21zM22,31H23V32H22zM23,31H24V32H23zM25,31H26V32H25zM27,31H28V32H27zM30,31H31V32H30zM34,31H35V32H34zM2,32H3V33H2zM3,32H4V33H3zM4,32H5V33H4zM5,32H6V33H5zM6,32H7V33H6zM7,32H8V33H7zM8,32H9V33H8zM10,32H11V33H10zM11,32H12V33H11zM12,32H13V33H12zM14,32H15V33H14zM15,32H16V33H15zM18,32H19V33H18zM19,32H20V33H19zM22,32H23V33H22zM23,32H24V33H23zM27,32H28V33H27zM28,32H29V33H28zM30,32H31V33H30zM32,32H33V33H32zM34,32H35V33H34zM35,32H36V33H35zM37,32H38V33H37zM38,32H39V33H38zM2,33H3V34H2zM8,33H9V34H8zM10,33H11V34H10zM11,33H12V34H11zM13,33H14V34H13zM14,33H15V34H14zM16,33H17V34H16zM17,33H18V34H17zM18,33H19V34H18zM19,33H20V34H19zM20,33H21V34H20zM23,33H24V34H23zM24,33H25V34H24zM26,33H27V34H26zM28,33H29V34H28zM30,33H31V34H30zM34,33H35V34H34zM37,33H38V34H37zM38,33H39V34H38zM2,34H3V35H2zM4,34H5V35H4zM5,34H6V35H5zM6,34H7V35H6zM8,34H9V35H8zM10,34H11V35H10zM12,34H13V35H12zM13,34H14V35H13zM15,34H16V35H15zM16,34H17V35H16zM17,34H18V35H17zM18,34H19V35H18zM21,34H22V35H21zM23,34H24V35H23zM27,34H28V35H27zM28,34H29V35H28zM29,34H30V35H29zM30,34H31V35H30zM31,34H32V35H31zM32,34H33V35H32zM33,34H34V35H33zM34,34H35V35H34zM36,34H37V35H36zM37,34H38V35H37zM38,34H39V35H38zM2,35H3V36H2zM4,35H5V36H4zM5,35H6V36H5zM6,35H7V36H6zM8,35H9V36H8zM10,35H11V36H10zM11,35H12V36H11zM12,35H13V36H12zM13,35H14V36H13zM15,35H16V36H15zM16,35H17V36H16zM17,35H18V36H17zM22,35H23V36H22zM24,35H25V36H24zM26,35H27V36H26zM30,35H31V36H30zM32,35H33V36H32zM34,35H35V36H34zM35,35H36V36H35zM37,35H38V36H37zM2,36H3V37H2zM4,36H5V37H4zM5,36H6V37H5zM6,36H7V37H6zM8,36H9V37H8zM10,36H11V37H10zM11,36H12V37H11zM14,36H15V37H14zM17,36H18V37H17zM18,36H19V37H18zM20,36H21V37H20zM21,36H22V37H21zM24,36H25V37H24zM28,36H29V37H28zM30,36H31V37H30zM31,36H32V37H31zM33,36H34V37H33zM38,36H39V37H38zM2,37H3V38H2zM8,37H9V38H8zM10,37H11V38H10zM11,37H12V38H11zM12,37H13V38H12zM13,37H14V38H13zM15,37H16V38H15zM16,37H17V38H16zM20,37H21V38H20zM21,37H22V38H21zM22,37H23V38H22zM23,37H24V38H23zM26,37H27V38H26zM29,37H30V38H29zM30,37H31V38H30zM31,37H32V38H31zM38,37H39V38H38zM2,38H3V39H2zM3,38H4V39H3zM4,38H5V39H4zM5,38H6V39H5zM6,38H7V39H6zM7,38H8V39H7zM8,38H9V39H8zM11,38H12V39H11zM13,38H14V39H13zM17,38H18V39H17zM21,38H22V39H21zM26,38H27V39H26zM27,38H28V39H27zM28,38H29V39H28zM33,38H34V39H33zM34,38H35V39H34zM35,38H36V39H35zM36,38H37V39H36zM37,38H38V39H37zM38,38H39V39H38z" id="qr-path" fill="#000000" fill-opacity="1" fill-rule="nonzero" stroke="none"/></svg>